<svg width="8" height="11" fill="none" xmlns="http://www.w3.org/2000/svg"><path d="M6.168 1.519h1.384c.252 0 .448.215.448.49v.354c0 .23-.154.445-.35.49v7.288c0 .476-.363.859-.81.859H1.16c-.447 0-.796-.383-.796-.86V2.855C.168 2.808 0 2.593 0 2.363V2.01c0-.276.21-.491.462-.491h1.37V.874C1.832.4 2.182 0 2.63 0h2.742c.447 0 .797.399.797.874v.645ZM5.37.767H2.629c-.07 0-.112.046-.112.107v.645h2.966V.874c0-.06-.042-.107-.112-.107Zm-3.986 9.251h5.244c.056 0 .098-.077.098-.138V2.87H1.273V9.88c0 .061.042.138.112.138Zm1.077-.568h-.084c-.252 0-.462-.23-.462-.506V3.927c0-.26.21-.475.462-.475h.084c.237 0 .447.215.447.475v5.017c0 .276-.21.506-.447.506Zm1.58 0h-.07c-.252 0-.462-.23-.462-.506V3.927c0-.26.21-.475.462-.475h.07c.252 0 .462.215.462.475v5.017c0 .276-.21.506-.462.506Zm1.58 0h-.07c-.251 0-.447-.23-.447-.506V3.927c0-.26.196-.475.447-.475h.07c.252 0 .462.215.462.475v5.017c0 .276-.21.506-.462.506Z" fill="#fff"/></svg>