<svg width="8" height="11" viewBox="0 0 8 11" fill="none" xmlns="http://www.w3.org/2000/svg">
<path d="M6.16783 1.51883H7.55245C7.8042 1.51883 8 1.73361 8 2.00976V2.36262C8 2.59275 7.84615 2.80753 7.65035 2.85356V10.1409C7.65035 10.6165 7.28671 11 6.83916 11H1.16084C0.713287 11 0.363636 10.6165 0.363636 10.1409V2.85356C0.167832 2.80753 0 2.59275 0 2.36262V2.00976C0 1.73361 0.20979 1.51883 0.461538 1.51883H1.83217V0.874477C1.83217 0.398884 2.18182 0 2.62937 0H5.37063C5.81818 0 6.16783 0.398884 6.16783 0.874477V1.51883ZM5.37063 0.767085H2.62937C2.55944 0.767085 2.51748 0.81311 2.51748 0.874477V1.51883H5.48252V0.874477C5.48252 0.81311 5.44056 0.767085 5.37063 0.767085ZM1.38462 10.0181H6.62937C6.68531 10.0181 6.72727 9.94142 6.72727 9.88006V2.8689H1.27273V9.88006C1.27273 9.94142 1.31469 10.0181 1.38462 10.0181ZM2.46154 9.45049H2.37762C2.12587 9.45049 1.91608 9.22036 1.91608 8.94421V3.92748C1.91608 3.66667 2.12587 3.45188 2.37762 3.45188H2.46154C2.6993 3.45188 2.90909 3.66667 2.90909 3.92748V8.94421C2.90909 9.22036 2.6993 9.45049 2.46154 9.45049ZM4.04196 9.45049H3.97203C3.72028 9.45049 3.51049 9.22036 3.51049 8.94421V3.92748C3.51049 3.66667 3.72028 3.45188 3.97203 3.45188H4.04196C4.29371 3.45188 4.5035 3.66667 4.5035 3.92748V8.94421C4.5035 9.22036 4.29371 9.45049 4.04196 9.45049ZM5.62238 9.45049H5.55245C5.3007 9.45049 5.1049 9.22036 5.1049 8.94421V3.92748C5.1049 3.66667 5.3007 3.45188 5.55245 3.45188H5.62238C5.87413 3.45188 6.08392 3.66667 6.08392 3.92748V8.94421C6.08392 9.22036 5.87413 9.45049 5.62238 9.45049Z" fill="white"/>
</svg>
